<?xml version="1.0" encoding="UTF-8" standalone="no"?>
<!-- Created with Inkscape (http://www.inkscape.org/) -->

<svg
   width="122.12131mm"
   height="20.991169mm"
   viewBox="0 0 122.12131 20.991169"
   version="1.1"
   id="svg1"
   xml:space="preserve"
   xmlns:xlink="http://www.w3.org/1999/xlink"
   xmlns="http://www.w3.org/2000/svg"
   xmlns:svg="http://www.w3.org/2000/svg"><defs
     id="defs1"><linearGradient
       id="linearGradient1"><stop
         style="stop-color:#ffffff;stop-opacity:1;"
         offset="0"
         id="stop1" /><stop
         style="stop-color:#a2deff;stop-opacity:1;"
         offset="1"
         id="stop2" /></linearGradient><linearGradient
       xlink:href="#linearGradient1"
       id="linearGradient2"
       x1="48.827145"
       y1="49.4725"
       x2="48.827145"
       y2="61.737537"
       gradientUnits="userSpaceOnUse"
       spreadMethod="pad" /></defs><g
     id="layer1"
     transform="translate(-41.441444,-42.075413)"><path
       style="font-weight:900;font-size:25.4px;line-height:0px;font-family:Pincoyablack;-inkscape-font-specification:'Pincoyablack Heavy';letter-spacing:0.1905px;word-spacing:1.12713px;fill:url(#linearGradient2);stroke:#111d36;stroke-width:2.5;paint-order:stroke fill markers"
       d="m 54.019848,51.529579 c 0,-1.1176 -0.5334,-1.8034 -1.7526,-1.8034 h -4.2418 v -1.3716 c 0,-0.1524 0.1016,-0.3556 0.3302,-0.3556 0.2286,0 0.3302,0.2032 0.3302,0.3556 v 0.7112 h 5.334 v -3.937 c 0,-1.1176 -0.5334,-1.8034 -1.7526,-1.8034 h -7.8232 c -1.2192,0 -1.7526,0.6858 -1.7526,1.8034 v 7.4422 c 0,1.1176 0.5334,1.803399 1.7526,1.803399 h 4.2418 v 2.4384 c 0,0.1524 -0.1016,0.3556 -0.3302,0.3556 -0.2286,0 -0.3302,-0.2032 -0.3302,-0.3556 v -1.8796 h -5.334 v 5.08 c 0,1.1176 0.5334,1.8034 1.7526,1.8034 h 7.8232 c 1.2192,0 1.7526,-0.6858 1.7526,-1.8034 z m 6.69289,2.8194 v 5.664199 c 0,1.1176 0.5334,1.8034 1.7526,1.8034 h 3.5814 v -7.0866 c 0,-1.117599 -0.5334,-1.803399 -1.7526,-1.803399 h -0.0254 v -0.3556 h 0.0254 c 1.2192,0 1.7526,-0.6858 1.7526,-1.8034 v -7.4422 h -3.5814 c -1.2192,0 -1.7526,0.6858 -1.7526,1.8034 v 6.477 c -0.0254,0.2032 -0.1524,0.254 -0.3556,0.254 h -0.3048 v -8.5344 h -5.334 v 18.491199 h 5.334 v -7.823199 h 0.3048 c 0.254,0 0.3556,0.0762 0.3556,0.3556 z m 11.36649,2.260599 v -1.5494 h 0.6604 v 1.5494 h 5.334 V 45.128779 c 0,-1.1176 -0.5334,-1.8034 -1.7526,-1.8034 h -7.8232 c -1.2192,0 -1.7526,0.6858 -1.7526,1.8034 v 11.480799 z m -6.9596,0.5588 v 4.6482 h 12.954 v -4.6482 z m 6.9596,-8.813799 c 0,-0.1524 0.1016,-0.3556 0.3302,-0.3556 0.2286,0 0.3302,0.2032 0.3302,0.3556 v 3.8608 h -0.6604 z m 12.68729,-0.1016 v 11.760199 c 0,1.1176 0.5334,1.8034 1.752599,1.8034 h 3.5814 V 45.128779 c 0,-1.1176 -0.5334,-1.8034 -1.7526,-1.8034 h -9.575799 v 18.491199 h 5.334 V 47.998979 h 0.381 c 0.1778,0.0254 0.254,0.0762 0.2794,0.254 z m 17.360892,-3.1242 c 0,-1.1176 -0.5334,-1.8034 -1.7526,-1.8034 h -9.575803 v 18.491199 h 9.575803 c 1.2192,0 1.7526,-0.6858 1.7526,-1.8034 z m -5.334003,11.683999 c 0,0.2286 -0.0762,0.3556 -0.3556,0.3556 h -0.3048 v -9.118599 h 0.381 c 0.2032,0 0.2794,0.1778 0.2794,0.3556 z M 104.6039,43.325379 c -1.2192,0 -1.7526,0.6858 -1.7526,1.8034 v 9.677399 c 0,1.1176 0.5334,1.8034 1.7526,1.8034 h 9.5758 v -4.114799 h -5.7404 c -0.1524,0 -0.254,-0.0762 -0.254,-0.254 v -0.3048 h 5.9944 v -3.937 h -5.9944 v -0.3048 c 0,-0.1778 0.1016,-0.254 0.254,-0.254 h 5.7404 v -4.1148 z m -3.4036,13.842999 v 4.6482 h 12.9794 v -4.6482 z m 19.67232,-2.819399 v 5.664199 c 0,1.1176 0.5334,1.8034 1.7526,1.8034 h 3.5814 v -7.0866 c 0,-1.117599 -0.5334,-1.803399 -1.7526,-1.803399 h -0.0254 v -0.3556 h 0.0254 c 1.2192,0 1.7526,-0.6858 1.7526,-1.8034 v -5.7912 c 0,-0.9652 -0.6096,-1.651 -1.7526,-1.651 h -9.5758 v 18.491199 h 5.334 v -7.823199 h 0.3048 c 0.254,0 0.3556,0.0762 0.3556,0.3556 z m 0,-2.7432 c -0.0254,0.2032 -0.1524,0.254 -0.3556,0.254 h -0.3048 v -3.8608 h 0.6604 z m 12.02689,-3.3528 v 11.760199 c 0,1.1176 0.5334,1.8034 1.7526,1.8034 h 3.5814 V 45.128779 c 0,-1.1176 -0.5334,-1.8034 -1.7526,-1.8034 h -9.5758 v 18.491199 h 5.334 V 47.998979 h 0.381 c 0.1778,0.0254 0.254,0.0762 0.2794,0.254 z m 7.81049,-4.9276 c -1.2192,0 -1.7526,0.6858 -1.7526,1.8034 v 9.677399 c 0,1.1176 0.5334,1.8034 1.7526,1.8034 h 9.5758 v -4.114799 h -5.7404 c -0.1524,0 -0.254,-0.0762 -0.254,-0.254 v -0.3048 h 5.9944 v -3.937 h -5.9944 v -0.3048 c 0,-0.1778 0.1016,-0.254 0.254,-0.254 h 5.7404 v -4.1148 z m -3.4036,13.842999 v 4.6482 h 12.9794 v -4.6482 z m 19.67233,-3.022599 v 3.022599 h -0.3048 c -0.254,0 -0.3556,-0.1016 -0.3556,-0.381 v -3.581399 h 5.9944 v -5.207 h -5.9944 v -4.6736 h -5.334 v 16.687799 c 0,1.1176 0.5334,1.8034 1.7526,1.8034 h 7.8232 c 1.2192,0 1.7526,-0.6858 1.7526,-1.8034 v -5.867399 z"
       id="text1"
       aria-label="skandeRnet" /></g></svg>
